<?xml version="1.0" encoding="UTF-8" standalone="no"?>
<svg
   viewBox="0.0 0.0 348.0 348.0"
   fill="none"
   version="1.1"
   id="svg848"
   sodipodi:docname="Channel Surfing.svg"
   inkscape:version="1.1.1 (3bf5ae0d25, 2021-09-20)"
   xmlns:inkscape="http://www.inkscape.org/namespaces/inkscape"
   xmlns:sodipodi="http://sodipodi.sourceforge.net/DTD/sodipodi-0.dtd"
   xmlns="http://www.w3.org/2000/svg"
   xmlns:svg="http://www.w3.org/2000/svg">
  <defs
     id="defs852" />
  <sodipodi:namedview
     id="namedview850"
     pagecolor="#ffffff"
     bordercolor="#666666"
     borderopacity="1.0"
     inkscape:pageshadow="2"
     inkscape:pageopacity="0.0"
     inkscape:pagecheckerboard="0"
     showgrid="false"
     inkscape:zoom="2.25"
     inkscape:cx="209.33333"
     inkscape:cy="179.33333"
     inkscape:window-width="1920"
     inkscape:window-height="1001"
     inkscape:window-x="-9"
     inkscape:window-y="-9"
     inkscape:window-maximized="1"
     inkscape:current-layer="svg848" />
  <path
     d="M5.079 5.776h336.913v337.67H5.08z"
     stroke-width="2"
     stroke="#000"
     id="path844" />
  <g
     aria-label="CHANNEL: ##"
     id="text2523"
     style="font-size:28.5382px;line-height:1.25;font-family:Arial;-inkscape-font-specification:Arial;fill:#000000;stroke-width:1.33773">
    <path
       d="m 91.197163,54.082965 2.703326,0.682799 q -0.850015,3.330385 -3.065627,5.086153 -2.201678,1.741834 -5.392717,1.741834 -3.302516,0 -5.378782,-1.337728 -2.062331,-1.351663 -3.149235,-3.901707 -1.072969,-2.550045 -1.072969,-5.476325 0,-3.191039 1.212316,-5.559932 1.226251,-2.382829 3.469732,-3.60908 2.257417,-1.240185 4.960742,-1.240185 3.065627,0 5.155827,1.560683 2.090201,1.560683 2.912346,4.38942 l -2.661522,0.62706 q -0.710668,-2.229547 -2.06233,-3.246777 -1.351663,-1.017231 -3.400059,-1.017231 -2.354959,0 -3.943512,1.128708 -1.574617,1.128708 -2.215612,3.037758 -0.640995,1.895115 -0.640995,3.915641 0,2.605783 0.752473,4.556637 0.766406,1.936919 2.368893,2.898411 1.602487,0.961492 3.469733,0.961492 2.27135,0 3.845968,-1.309859 1.574617,-1.309859 2.132004,-3.887772 z"
       id="path17174" />
    <path
       d="M 97.314483,61.245384 V 40.817161 h 2.703327 v 8.38867 h 10.61822 v -8.38867 h 2.70332 v 20.428223 h -2.70332 v -9.628855 h -10.61822 v 9.628855 z"
       id="path17176" />
    <path
       d="m 115.59677,61.245384 7.84522,-20.428223 h 2.91234 l 8.3608,20.428223 h -3.07956 l -2.38283,-6.186992 h -8.54195 l -2.24348,6.186992 z m 5.89436,-8.38867 h 6.92553 l -2.132,-5.657475 q -0.97543,-2.577914 -1.44921,-4.236139 -0.39017,1.964788 -1.10084,3.901707 z"
       id="path17178" />
    <path
       d="M 136.84714,61.245384 V 40.817161 h 2.773 l 10.72969,16.038803 V 40.817161 h 2.59185 v 20.428223 h -2.773 L 139.43899,45.192647 v 16.052737 z"
       id="path17180" />
    <path
       d="M 157.45652,61.245384 V 40.817161 h 2.77299 l 10.7297,16.038803 V 40.817161 h 2.59185 v 20.428223 h -2.773 l -10.7297,-16.052737 v 16.052737 z"
       id="path17182" />
    <path
       d="M 178.1495,61.245384 V 40.817161 h 14.77075 v 2.410697 h -12.06743 v 6.256666 h 11.30102 v 2.396763 h -11.30102 v 6.9534 h 12.54121 v 2.410697 z"
       id="path17184" />
    <path
       d="M 197.01704,61.245384 V 40.817161 h 2.70333 v 18.017526 h 10.06083 v 2.410697 z"
       id="path17186" />
    <path
       d="m 213.37634,49.303374 v -2.856607 h 2.8566 v 2.856607 z m 0,11.94201 v -2.856607 h 2.8566 v 2.856607 z"
       id="path17188" />
    <path
       d="m 228.09135,61.593751 1.21231,-5.936169 h -2.35496 v -2.076265 h 2.773 l 1.03117,-5.058285 h -3.80417 v -2.076265 h 4.22221 l 1.21231,-5.977973 h 2.0902 l -1.21231,5.977973 h 4.38942 l 1.21231,-5.977973 h 2.10414 l -1.21232,5.977973 h 2.4107 v 2.076265 h -2.82874 l -1.0451,5.058285 h 3.87384 v 2.076265 h -4.29188 l -1.21231,5.936169 h -2.0902 l 1.19838,-5.936169 h -4.37549 l -1.21231,5.936169 z m 3.72055,-8.012434 h 4.37549 l 1.0451,-5.058285 h -4.38942 z"
       id="path17190" />
    <path
       d="m 243.96294,61.593751 1.21232,-5.936169 h -2.35496 v -2.076265 h 2.773 l 1.03116,-5.058285 h -3.80416 v -2.076265 h 4.2222 l 1.21232,-5.977973 h 2.0902 l -1.21232,5.977973 h 4.38942 l 1.21232,-5.977973 h 2.10414 l -1.21232,5.977973 h 2.4107 v 2.076265 h -2.82874 l -1.0451,5.058285 h 3.87384 v 2.076265 h -4.29188 l -1.21232,5.936169 h -2.0902 l 1.19838,-5.936169 h -4.37548 l -1.21232,5.936169 z m 3.72056,-8.012434 h 4.37548 l 1.0451,-5.058285 h -4.38942 z"
       id="path17192" />
  </g>
  <g
     aria-label="DISPLAY"
     id="text6419"
     style="font-size:72.1243px;line-height:1.25;font-family:Arial;-inkscape-font-specification:Arial;fill:#000000;stroke-width:0.845207">
    <path
       d="m 30.5414,190.38347 v -51.62804 h 17.784556 q 6.022097,0 9.191622,0.73956 4.437335,1.02129 7.571643,3.69778 4.085165,3.45126 6.092531,8.83945 2.042582,5.35297 2.042582,12.25549 0,5.88123 -1.37346,10.42422 -1.373461,4.54298 -3.521695,7.53642 -2.148233,2.95823 -4.71907,4.68386 -2.53562,1.69041 -6.162965,2.57084 -3.592128,0.88042 -8.275981,0.88042 z m 6.832087,-6.09253 H 48.39639 q 5.106457,0 7.994246,-0.95086 2.923006,-0.95086 4.648636,-2.67649 2.429969,-2.42997 3.768213,-6.51513 1.373461,-4.12038 1.373461,-9.9664 0,-8.09989 -2.676488,-12.43158 -2.64127,-4.3669 -6.4447,-5.84601 -2.746922,-1.05651 -8.839453,-1.05651 H 37.373487 Z"
       id="path17195" />
    <path
       d="m 83.789417,190.38347 v -51.62804 h 6.832086 v 51.62804 z"
       id="path17197" />
    <path
       d="m 100.34138,173.79629 6.4447,-0.56347 q 0.45782,3.87386 2.11302,6.37426 1.69041,2.46519 5.2121,4.01474 3.5217,1.51432 7.92382,1.51432 3.90908,0 6.90252,-1.16215 2.99344,-1.16216 4.43733,-3.16953 1.47911,-2.04258 1.47911,-4.43733 0,-2.42997 -1.40867,-4.22604 -1.40868,-1.83128 -4.64864,-3.06387 -2.0778,-0.80999 -9.19162,-2.5004 -7.11382,-1.72563 -9.9664,-3.23996 -3.69778,-1.93693 -5.52906,-4.78951 -1.79606,-2.88779 -1.79606,-6.4447 0,-3.90908 2.21867,-7.2899 2.21866,-3.41605 6.47991,-5.1769 4.26125,-1.76084 9.47336,-1.76084 5.74036,0 10.10726,1.8665 4.40212,1.83128 6.76166,5.4234 2.35953,3.59213 2.53562,8.13512 l -6.55035,0.49304 q -0.52826,-4.89516 -3.59213,-7.39556 -3.02866,-2.50041 -8.98032,-2.50041 -6.19819,0 -9.05076,2.28911 -2.81735,2.25388 -2.81735,5.45862 0,2.78214 2.00736,4.5782 1.97215,1.79607 10.28335,3.69778 8.34642,1.8665 11.44551,3.27518 4.50776,2.0778 6.656,5.28254 2.14823,3.16953 2.14823,7.32512 0,4.12039 -2.35953,7.78295 -2.35954,3.62734 -6.79687,5.66993 -4.40212,2.00736 -9.93118,2.00736 -7.00817,0 -11.76246,-2.04258 -4.71907,-2.04258 -7.43077,-6.12775 -2.67649,-4.12038 -2.81736,-9.29727 z"
       id="path17199" />
    <path
       d="m 150.77204,190.38347 v -51.62804 h 19.47497 q 5.14167,0 7.85337,0.49304 3.80343,0.6339 6.37427,2.42997 2.57084,1.76084 4.12038,4.96559 1.58477,3.20474 1.58477,7.04338 0,6.58557 -4.19082,11.16378 -4.19082,4.54298 -15.14329,4.54298 h -13.24157 v 20.9893 z m 6.83208,-27.08183 h 13.34722 q 6.62079,0 9.40293,-2.46519 2.78214,-2.46518 2.78214,-6.93773 0,-3.23996 -1.6552,-5.52906 -1.61998,-2.32432 -4.29647,-3.06388 -1.72563,-0.45782 -6.37426,-0.45782 h -13.20636 z"
       id="path17201" />
    <path
       d="m 198.59664,190.38347 v -51.62804 h 6.83209 v 45.53551 h 25.42663 v 6.09253 z"
       id="path17203" />
    <path
       d="m 233.32055,190.38347 19.82714,-51.62804 h 7.36034 l 21.13017,51.62804 h -7.78295 l -6.02209,-15.63632 h -21.58799 l -5.66993,15.63632 z m 14.89677,-21.2006 h 17.50282 l -5.38819,-14.29808 q -2.46519,-6.51513 -3.66256,-10.70595 -0.98608,4.96559 -2.78214,9.86074 z"
       id="path17205" />
    <path
       d="m 296.28845,190.38347 v -21.86972 l -19.89757,-29.75832 h 8.3112 l 10.17769,15.56589 q 2.81736,4.3669 5.24733,8.7338 2.32432,-4.04995 5.63471,-9.12119 l 10.00161,-15.1785 h 7.95903 l -20.60191,29.75832 v 21.86972 z"
       id="path17207" />
  </g>
  <g
     aria-label="+++"
     id="text9007"
     style="font-size:62.5777px;line-height:1.25;font-family:Arial;-inkscape-font-specification:Arial;fill:#000000;stroke-width:0.733333">
    <path
       d="M 30.719425,322.51948 V 310.23616 H 18.527773 v -5.13332 h 12.191652 v -12.19166 h 5.194438 v 12.19166 h 12.191652 v 5.13332 H 35.913863 v 12.28332 z"
       id="path17210" />
    <path
       d="M 67.263824,322.51948 V 310.23616 H 55.072172 v -5.13332 h 12.191652 v -12.19166 h 5.194438 v 12.19166 h 12.191652 v 5.13332 H 72.458262 v 12.28332 z"
       id="path17212" />
    <path
       d="M 103.80822,322.51948 V 310.23616 H 91.616572 v -5.13332 h 12.191648 v -12.19166 h 5.19444 v 12.19166 h 12.19165 v 5.13332 h -12.19165 v 12.28332 z"
       id="path17214" />
  </g>
  <g
     aria-label="TIME"
     id="text10488"
     style="font-size:42.52px;line-height:1.25;font-family:Arial;-inkscape-font-specification:Arial;fill:#000000;stroke-width:0.498283">
    <path
       d="m 229.43614,324.23224 v -26.8449 h -10.02791 v -3.59178 h 24.12512 v 3.59178 h -10.06944 v 26.8449 z"
       id="path17217" />
    <path
       d="m 248.35007,324.23224 v -30.43668 h 4.02777 v 30.43668 z"
       id="path17219" />
    <path
       d="m 259.35378,324.23224 v -30.43668 h 6.06242 l 7.20431,21.55066 q 0.99657,3.01045 1.45332,4.5053 0.51905,-1.66094 1.61942,-4.87901 l 7.28736,-21.17695 h 5.41881 v 30.43668 h -3.88244 v -25.47463 l -8.84449,25.47463 h -3.6333 l -8.80297,-25.91063 v 25.91063 z"
       id="path17221" />
    <path
       d="m 294.98088,324.23224 v -30.43668 h 22.00743 v 3.59178 h -17.97965 v 9.32201 h 16.83775 v 3.57101 h -16.83775 v 10.3601 h 18.68554 v 3.59178 z"
       id="path17223" />
  </g>
  <g
     aria-label="[ ]"
     transform="matrix(1.1869402,0,0,0.84250242,0,2)"
     id="text12620"
     style="font-size:87.4424px;line-height:1.25;font-family:Arial;-inkscape-font-specification:Arial;fill:#000000;stroke-width:1.02471">
    <path
       d="m 115.32314,328.20556 v -79.97051 h 16.9505 v 6.36178 h -9.26513 v 67.24696 h 9.26513 v 6.36177 z"
       id="path17226" />
    <path
       d="m 176.59259,328.20556 h -16.9505 v -6.36177 h 9.26513 v -67.24696 h -9.26513 v -6.36178 h 16.9505 z"
       id="path17228" />
  </g>
  <g
     aria-label="X"
     id="text16432"
     style="font-size:66.7067px;line-height:1.25;font-family:Arial;-inkscape-font-specification:Arial;fill:#ff0000;stroke-width:0.781719"
     transform="translate(0,2)">
    <path
       d="m 152.26466,266.66666 18.46811,-24.88473 -16.28581,-22.86529 h 7.52404 l 8.66406,12.24694 q 2.70344,3.81088 3.84345,5.86289 1.59601,-2.60573 3.77831,-5.43946 l 9.60863,-12.67037 h 6.87262 l -16.7744,22.507 18.07726,25.24302 h -7.81719 l -12.01893,-17.03497 q -1.00972,-1.46572 -2.08459,-3.19202 -1.59601,2.60573 -2.28001,3.58288 l -11.98636,16.64411 z"
       id="path17231" />
  </g>
</svg>
